<svg width="66" height="66" viewBox="0 0 66 66" fill="none" xmlns="http://www.w3.org/2000/svg">
<g clip-path="url(#clip0_1509_12)">
<path d="M55.6875 0H10.3125C4.61707 0 0 4.61707 0 10.3125V55.6875C0 61.3829 4.61707 66 10.3125 66H55.6875C61.3829 66 66 61.3829 66 55.6875V10.3125C66 4.61707 61.3829 0 55.6875 0Z" fill="#6057F2"/>
<path d="M46.1686 20.5797C43.7466 19.4684 41.1494 18.6496 38.4338 18.1807C38.3844 18.1716 38.335 18.1942 38.3095 18.2395C37.9755 18.8336 37.6055 19.6086 37.3464 20.2178C34.4256 19.7805 31.5199 19.7805 28.659 20.2178C28.3999 19.5951 28.0164 18.8336 27.6809 18.2395C27.6554 18.1958 27.606 18.1731 27.5566 18.1807C24.8425 18.6481 22.2453 19.4669 19.8218 20.5797C19.8008 20.5887 19.7829 20.6038 19.7709 20.6234C14.8445 27.9833 13.495 35.1623 14.157 42.2523C14.16 42.287 14.1795 42.3202 14.2065 42.3413C17.4567 44.7282 20.6052 46.1773 23.6952 47.1378C23.7446 47.1529 23.797 47.1348 23.8285 47.0941C24.5595 46.0959 25.211 45.0434 25.7697 43.9366C25.8026 43.8718 25.7712 43.7949 25.7038 43.7692C24.6703 43.3772 23.6862 42.8992 22.7396 42.3564C22.6647 42.3127 22.6587 42.2056 22.7276 42.1543C22.9268 42.005 23.126 41.8497 23.3163 41.6929C23.3507 41.6642 23.3986 41.6582 23.4391 41.6763C29.658 44.5156 36.3908 44.5156 42.5363 41.6763C42.5768 41.6567 42.6248 41.6627 42.6607 41.6914C42.8509 41.8482 43.0501 42.005 43.2508 42.1543C43.3197 42.2056 43.3152 42.3127 43.2404 42.3564C42.2937 42.9097 41.3096 43.3772 40.2746 43.7677C40.2073 43.7934 40.1773 43.8718 40.2103 43.9366C40.7809 45.0419 41.4325 46.0943 42.1499 47.0926C42.1799 47.1348 42.2338 47.1529 42.2832 47.1378C45.3882 46.1773 48.5366 44.7282 51.7869 42.3413C51.8154 42.3202 51.8334 42.2885 51.8364 42.2538C52.6287 34.057 50.5093 26.9369 46.218 20.6249C46.2075 20.6038 46.1896 20.5887 46.1686 20.5797ZM26.6984 37.9353C24.826 37.9353 23.2833 36.2163 23.2833 34.1053C23.2833 31.9943 24.7961 30.2753 26.6984 30.2753C28.6155 30.2753 30.1434 32.0094 30.1134 34.1053C30.1134 36.2163 28.6006 37.9353 26.6984 37.9353ZM39.325 37.9353C37.4527 37.9353 35.91 36.2163 35.91 34.1053C35.91 31.9943 37.4228 30.2753 39.325 30.2753C41.2423 30.2753 42.77 32.0094 42.7401 34.1053C42.7401 36.2163 41.2423 37.9353 39.325 37.9353Z" fill="white"/>
</g>
<defs>
<clipPath id="clip0_1509_12">
<rect width="66" height="66" fill="white"/>
</clipPath>
</defs>
</svg>
