<svg width="66" height="66" viewBox="0 0 66 66" fill="none" xmlns="http://www.w3.org/2000/svg">
<g clip-path="url(#clip0_1507_19)">
<path d="M55.6875 0H10.3125C4.61707 0 0 4.61707 0 10.3125V55.6875C0 61.3829 4.61707 66 10.3125 66H55.6875C61.3829 66 66 61.3829 66 55.6875V10.3125C66 4.61707 61.3829 0 55.6875 0Z" fill="#161516"/>
<g clip-path="url(#clip1_1507_19)">
<path fill-rule="evenodd" clip-rule="evenodd" d="M32.5005 11.8959C27.3965 11.8985 22.4598 13.7063 18.5732 16.9959C14.6866 20.2855 12.1035 24.8425 11.2859 29.852C10.4682 34.8614 11.4693 39.9968 14.1101 44.3397C16.7509 48.6826 20.8593 51.95 25.7005 53.5574C26.7686 53.7557 27.1709 53.0937 27.1709 52.5309C27.1709 51.968 27.1495 50.3361 27.1424 48.552C21.1613 49.844 19.8974 46.028 19.8974 46.028C18.9219 43.55 17.5121 42.8987 17.5121 42.8987C15.5611 41.5747 17.6581 41.5995 17.6581 41.5995C19.8191 41.7517 20.9548 43.8049 20.9548 43.8049C22.8702 47.0723 25.9853 46.1271 27.21 45.5749C27.4023 44.1908 27.9613 43.2491 28.5772 42.7146C23.7994 42.1765 18.7795 40.3428 18.7795 32.1514C18.7499 30.027 19.5427 27.9726 20.994 26.4132C20.7732 25.8751 20.0363 23.7016 21.204 20.7493C21.204 20.7493 23.009 20.1758 27.1175 22.9405C30.6415 21.9823 34.3595 21.9823 37.8835 22.9405C41.9884 20.1758 43.7899 20.7493 43.7899 20.7493C44.9612 23.6945 44.2242 25.868 44.0035 26.4132C45.4593 27.9728 46.2538 30.0309 46.2215 32.1585C46.2215 40.3676 41.1909 42.1765 36.406 42.704C37.175 43.3695 37.8622 44.6687 37.8622 46.6652C37.8622 49.5255 37.8372 51.8264 37.8372 52.5309C37.8372 53.1008 38.2253 53.7663 39.3147 53.5574C44.1565 51.9498 48.2653 48.6818 50.906 44.3382C53.5468 39.9945 54.5474 34.8584 53.7288 29.8485C52.9102 24.8385 50.3259 20.2815 46.438 16.9925C42.5501 13.7034 37.6123 11.8968 32.5076 11.8959H32.5005Z" fill="white"/>
<path d="M19.1421 42.5906C19.0958 42.6968 18.9249 42.7287 18.7861 42.6543C18.6472 42.58 18.544 42.442 18.5938 42.3322C18.6437 42.2225 18.811 42.1942 18.9499 42.2685C19.0887 42.3428 19.1955 42.4844 19.1421 42.5906Z" fill="white"/>
<path d="M20.0144 43.5571C19.9406 43.594 19.8563 43.6043 19.7758 43.5862C19.6952 43.5682 19.6235 43.5228 19.5729 43.458C19.4341 43.3093 19.4056 43.104 19.5124 43.0119C19.6192 42.9199 19.8114 42.9624 19.9503 43.111C20.0891 43.2597 20.1212 43.465 20.0144 43.5571Z" fill="white"/>
<path d="M20.8617 44.7855C20.73 44.8775 20.5057 44.7855 20.3811 44.6014C20.3467 44.5684 20.3193 44.5288 20.3005 44.485C20.2818 44.4412 20.2722 44.3941 20.2722 44.3465C20.2722 44.299 20.2818 44.2519 20.3005 44.2081C20.3193 44.1643 20.3467 44.1247 20.3811 44.0917C20.5128 44.0032 20.7371 44.0917 20.8617 44.2722C20.9864 44.4527 20.9899 44.6934 20.8617 44.7855V44.7855Z" fill="white"/>
<path d="M22.0117 45.9749C21.8942 46.1059 21.6557 46.0705 21.4599 45.8935C21.2641 45.7165 21.2178 45.4758 21.3352 45.3483C21.4527 45.2209 21.6913 45.2563 21.8942 45.4297C22.0971 45.6032 22.1363 45.8475 22.0117 45.9749V45.9749Z" fill="white"/>
<path d="M23.6244 46.6687C23.571 46.8351 23.3289 46.9094 23.0868 46.8386C22.8447 46.7678 22.6845 46.5696 22.7308 46.3997C22.7771 46.2297 23.0227 46.1519 23.2684 46.2297C23.514 46.3076 23.6707 46.4952 23.6244 46.6687Z" fill="white"/>
<path d="M25.3832 46.789C25.3832 46.9625 25.1838 47.1111 24.9275 47.1147C24.6712 47.1182 24.4611 46.9766 24.4611 46.8032C24.4611 46.6297 24.6605 46.481 24.9168 46.4775C25.1731 46.4739 25.3832 46.612 25.3832 46.789Z" fill="white"/>
<path d="M27.0209 46.5165C27.0529 46.6899 26.8749 46.8705 26.6186 46.9129C26.3622 46.9554 26.1379 46.8528 26.1059 46.6828C26.0739 46.5129 26.259 46.3289 26.5082 46.2828C26.7574 46.2368 26.9888 46.343 27.0209 46.5165Z" fill="white"/>
</g>
</g>
<defs>
<clipPath id="clip0_1507_19">
<rect width="66" height="66" fill="white"/>
</clipPath>
<clipPath id="clip1_1507_19">
<rect width="43" height="43" fill="white" transform="translate(11 11)"/>
</clipPath>
</defs>
</svg>
