<?xml version="1.0" encoding="UTF-8" standalone="no"?>
<!-- Created with Inkscape (http://www.inkscape.org/) -->

<svg
   width="8.46667mm"
   height="8.46667mm"
   viewBox="0 0 8.46667 8.46667"
   version="1.1"
   id="svg296"
   xml:space="preserve"
   inkscape:version="1.2 (dc2aeda, 2022-05-15)"
   sodipodi:docname="snapchat.svg"
   xmlns:inkscape="http://www.inkscape.org/namespaces/inkscape"
   xmlns:sodipodi="http://sodipodi.sourceforge.net/DTD/sodipodi-0.dtd"
   xmlns="http://www.w3.org/2000/svg"
   xmlns:svg="http://www.w3.org/2000/svg"><sodipodi:namedview
     id="namedview298"
     pagecolor="#ffffff"
     bordercolor="#000000"
     borderopacity="0.25"
     inkscape:showpageshadow="2"
     inkscape:pageopacity="0.0"
     inkscape:pagecheckerboard="0"
     inkscape:deskcolor="#d1d1d1"
     inkscape:document-units="mm"
     showgrid="false"
     inkscape:zoom="2.7737346"
     inkscape:cx="-8.8328567"
     inkscape:cy="68.13918"
     inkscape:window-width="1440"
     inkscape:window-height="796"
     inkscape:window-x="0"
     inkscape:window-y="25"
     inkscape:window-maximized="1"
     inkscape:current-layer="layer1" /><defs
     id="defs293" /><g
     inkscape:label="Layer 1"
     inkscape:groupmode="layer"
     id="layer1"
     transform="translate(397.63148,-298.78956)"><path
       d="m -391.38731,301.99102 c -0.0529,-0.18521 -0.18521,-0.3175 -0.37042,-0.37042 -0.3175,-0.0794 -1.66688,-0.0794 -1.66688,-0.0794 0,0 -1.32291,0 -1.66687,0.0794 -0.18521,0.0529 -0.3175,0.18521 -0.37042,0.37042 -0.0529,0.34396 -0.0529,1.03187 -0.0529,1.03187 0,0 0,0.68792 0.0794,1.03188 0.0529,0.18521 0.18521,0.3175 0.37042,0.37041 0.3175,0.0794 1.66687,0.0794 1.66687,0.0794 0,0 1.32292,0 1.66688,-0.0794 0.18521,-0.0529 0.3175,-0.1852 0.37041,-0.37041 0.0794,-0.34396 0.0794,-1.03188 0.0794,-1.03188 0,0 0,-0.68791 -0.10583,-1.03187 z m -2.43417,1.66687 v -1.27 l 1.11125,0.635 z"
       fill="#ffffff"
       id="path4"
       style="stroke-width:0.264583" /><g
       id="g950"><path
         d="m -390.48773,298.78956 h -5.82083 c -0.73063,0 -1.32292,0.59229 -1.32292,1.32292 v 5.82083 c 0,0.73062 0.59229,1.32292 1.32292,1.32292 h 5.82083 c 0.73062,0 1.32292,-0.5923 1.32292,-1.32292 v -5.82083 c 0,-0.73063 -0.5923,-1.32292 -1.32292,-1.32292 z"
         fill="#ff0000"
         id="path2"
         style="fill:#fffc00;fill-opacity:1;stroke-width:0.264583" /><rect
         style="fill:#fffc00;fill-opacity:1;stroke-width:0.264583"
         id="rect945"
         width="6.7429595"
         height="5.2346659"
         x="-396.85864"
         y="300.37222" /></g><g
       id="g954"
       transform="translate(-11.17411,0.96209008)"><path
         id="path890"
         style="fill:#ffffff;fill-opacity:1;stroke-width:0.264583"
         d="m -382.19714,299.45373 c -0.0961,-4e-4 -0.21215,0.006 -0.27285,0.0155 -0.13018,0.0206 -0.17884,0.0312 -0.28112,0.063 -0.0703,0.0219 -0.17149,0.0636 -0.23719,0.0971 -0.0365,0.0187 -0.11707,0.0661 -0.15607,0.092 -0.0367,0.0243 -0.0953,0.0669 -0.10025,0.0729 -10e-4,10e-4 -0.009,0.007 -0.0176,0.014 -0.0645,0.0497 -0.17354,0.16435 -0.23874,0.25115 -0.0917,0.12202 -0.15961,0.25243 -0.20361,0.39325 -0.054,0.17288 -0.0761,0.34161 -0.0801,0.60824 l -0.002,0.13746 -0.0196,-0.005 c -0.0464,-0.0115 -0.0993,-0.0165 -0.1602,-0.0145 -0.084,0.003 -0.1366,0.0157 -0.2036,0.0491 -0.12621,0.0629 -0.20938,0.17244 -0.23978,0.31677 -0.008,0.0407 -0.008,0.14086 5.1e-4,0.18036 0.0218,0.0995 0.069,0.18313 0.14883,0.26303 0.0507,0.0508 0.0909,0.0804 0.24133,0.17828 0.14853,0.0966 0.15131,0.0999 0.14831,0.14211 -0.002,0.0191 -0.006,0.0304 -0.0248,0.0687 -0.0779,0.15589 -0.19457,0.29986 -0.34313,0.42375 -0.10854,0.0905 -0.21038,0.15598 -0.36174,0.23358 -0.0834,0.0429 -0.10452,0.0552 -0.13952,0.0816 -0.058,0.0438 -0.094,0.0935 -0.11628,0.1602 -0.0317,0.0948 -0.0168,0.19221 0.0429,0.28371 0.0283,0.0433 0.0908,0.10604 0.13745,0.13694 0.0881,0.0583 0.23544,0.12204 0.36639,0.15864 0.0591,0.0166 0.0881,0.0332 0.1018,0.0594 0.003,0.006 0.0135,0.0303 0.0238,0.0553 0.0558,0.1349 0.15595,0.21639 0.30179,0.24649 0.0371,0.008 0.1092,0.0151 0.1726,0.0181 0.19099,0.008 0.27121,0.0172 0.37311,0.0439 0.0852,0.0223 0.1291,0.0446 0.28473,0.13901 0.10922,0.0662 0.21879,0.12353 0.28319,0.14883 0.13813,0.0543 0.25647,0.082 0.40514,0.0961 0.10134,0.01 0.26499,0.005 0.36742,-0.0108 0.2178,-0.0332 0.37992,-0.0993 0.64389,-0.262 0.1041,-0.0641 0.16206,-0.0909 0.23926,-0.11111 0.10115,-0.0264 0.17551,-0.0359 0.33228,-0.0429 0.14928,-0.006 0.1973,-0.0123 0.262,-0.032 0.10482,-0.0319 0.19006,-0.10243 0.23616,-0.19533 0.007,-0.0131 0.0163,-0.0368 0.0233,-0.0532 0.0253,-0.0649 0.0381,-0.0749 0.12816,-0.1018 0.10794,-0.0321 0.17071,-0.0569 0.25941,-0.10129 0.0989,-0.0495 0.14822,-0.0852 0.20412,-0.14831 0.0489,-0.0553 0.0809,-0.12522 0.0899,-0.19792 0.0129,-0.10329 -0.0357,-0.21435 -0.12454,-0.28525 -0.0244,-0.0195 -0.08,-0.0524 -0.13901,-0.0822 -0.30191,-0.15228 -0.51727,-0.33831 -0.66146,-0.57102 -0.0401,-0.0647 -0.0719,-0.13258 -0.0749,-0.15658 -0.005,-0.0467 -0.0121,-0.0402 0.21291,-0.18656 0.14025,-0.0912 0.21195,-0.15874 0.26975,-0.25424 0.079,-0.13056 0.0852,-0.29988 0.0165,-0.44184 -0.0604,-0.1248 -0.17229,-0.21033 -0.31626,-0.24133 -0.0729,-0.0153 -0.19172,-0.0108 -0.26252,0.0103 -0.006,0.002 -0.006,-0.005 -0.006,-0.10439 -1.5e-4,-0.2977 -0.0326,-0.51579 -0.10594,-0.7121 -0.0649,-0.17365 -0.17059,-0.33312 -0.31884,-0.48162 -0.12272,-0.12293 -0.26963,-0.22424 -0.43047,-0.29714 -0.0564,-0.0256 -0.0653,-0.0295 -0.0961,-0.0413 -0.14845,-0.0567 -0.31865,-0.0921 -0.49558,-0.10387 -0.0247,-0.002 -0.0548,-0.003 -0.0868,-0.003 z" /><path
         style="fill:#000000;stroke-width:0.00351194"
         d="m -382.36295,304.66317 c -0.14869,-0.0141 -0.26744,-0.0424 -0.40557,-0.0967 -0.0644,-0.0253 -0.17349,-0.0828 -0.28271,-0.14907 -0.15565,-0.0944 -0.20059,-0.11623 -0.28575,-0.13856 -0.1019,-0.0267 -0.18175,-0.0362 -0.37274,-0.0442 -0.0634,-0.003 -0.13573,-0.01 -0.17279,-0.0177 -0.14584,-0.0301 -0.24529,-0.11152 -0.30108,-0.24642 -0.0103,-0.025 -0.0212,-0.05 -0.0241,-0.0556 -0.0137,-0.0262 -0.0425,-0.043 -0.10161,-0.0596 -0.13095,-0.0366 -0.27812,-0.10042 -0.36618,-0.15876 -0.0466,-0.0309 -0.10958,-0.0933 -0.13787,-0.13662 -0.0597,-0.0915 -0.0744,-0.18895 -0.0427,-0.28373 0.0223,-0.0667 0.0584,-0.11636 0.11642,-0.16015 0.035,-0.0264 0.0562,-0.0387 0.13963,-0.0816 0.15136,-0.0776 0.25319,-0.14344 0.36173,-0.23396 0.14856,-0.12389 0.26512,-0.26788 0.34302,-0.42377 0.0192,-0.0383 0.0232,-0.0496 0.0248,-0.0687 0.003,-0.0422 2.5e-4,-0.0452 -0.14828,-0.14182 -0.1504,-0.0979 -0.19083,-0.12779 -0.24157,-0.17864 -0.0798,-0.0799 -0.12705,-0.16345 -0.14887,-0.26291 -0.009,-0.0395 -0.009,-0.13948 -1.6e-4,-0.1802 0.0304,-0.14433 0.11338,-0.25403 0.23959,-0.31696 0.067,-0.0334 0.1197,-0.046 0.20369,-0.0487 0.0609,-0.002 0.11379,0.003 0.16019,0.0142 l 0.0197,0.005 0.002,-0.13741 c 0.004,-0.26663 0.0262,-0.4351 0.0802,-0.60798 0.044,-0.14082 0.11145,-0.27136 0.20319,-0.39338 0.0652,-0.0868 0.17424,-0.20136 0.23879,-0.25105 0.009,-0.007 0.0166,-0.0131 0.0176,-0.0142 0.005,-0.006 0.0638,-0.0485 0.10041,-0.0728 0.039,-0.0259 0.11951,-0.0734 0.15596,-0.0921 0.0657,-0.0336 0.16712,-0.0749 0.23745,-0.0968 0.10228,-0.0318 0.15067,-0.0427 0.28085,-0.0633 0.081,-0.0129 0.26069,-0.0191 0.35969,-0.0125 0.17693,0.0118 0.34724,0.0475 0.49569,0.10415 0.0308,0.0118 0.0397,0.0155 0.0961,0.0411 0.16084,0.0729 0.30775,0.17433 0.43047,0.29726 0.14825,0.1485 0.2539,0.30822 0.31877,0.48187 0.0733,0.19631 0.10573,0.41419 0.10588,0.71189 4e-5,0.0997 4.9e-4,0.10636 0.006,0.10465 0.0708,-0.0211 0.18967,-0.0255 0.26252,-0.01 0.14397,0.031 0.25588,0.11634 0.31625,0.24114 0.0687,0.14196 0.0623,0.3112 -0.0167,0.44176 -0.0578,0.0955 -0.12945,0.16308 -0.2697,0.25427 -0.22503,0.14633 -0.21786,0.14004 -0.21313,0.18671 0.003,0.024 0.0351,0.0922 0.0752,0.15684 0.14419,0.23271 0.35928,0.41832 0.6612,0.5706 0.059,0.0298 0.1148,0.0627 0.13922,0.0822 0.0888,0.0709 0.13723,0.18236 0.12428,0.28565 -0.009,0.0727 -0.0407,0.14238 -0.0896,0.19764 -0.0559,0.0631 -0.10535,0.0991 -0.20427,0.14859 -0.0887,0.0444 -0.15144,0.0688 -0.25938,0.1009 -0.0901,0.0269 -0.10262,0.0368 -0.12796,0.10171 -0.007,0.0164 -0.017,0.0406 -0.0235,0.0537 -0.0461,0.0929 -0.13106,0.1633 -0.23588,0.19524 -0.0647,0.0197 -0.11309,0.0256 -0.26237,0.032 -0.15677,0.007 -0.23073,0.0162 -0.33188,0.0426 -0.0772,0.0202 -0.13471,0.047 -0.23881,0.11114 -0.26397,0.16271 -0.42665,0.22884 -0.64445,0.262 -0.10243,0.0156 -0.26573,0.0203 -0.36707,0.0108 z m 0.20523,-0.29319 c 0.21285,-0.0112 0.37045,-0.0629 0.58326,-0.19141 0.14344,-0.0866 0.16317,-0.0981 0.19871,-0.11596 0.0784,-0.0394 0.15047,-0.0639 0.25267,-0.0858 0.097,-0.0209 0.16953,-0.0288 0.34041,-0.037 0.14077,-0.007 0.1768,-0.0123 0.20741,-0.0316 0.0258,-0.0162 0.0386,-0.0462 0.0474,-0.1106 0.01,-0.0706 0.0213,-0.10027 0.0497,-0.12663 0.0313,-0.0292 0.0824,-0.052 0.17155,-0.0767 0.0213,-0.006 0.059,-0.0163 0.0839,-0.0232 0.0895,-0.0248 0.17632,-0.0597 0.25196,-0.10119 0.0656,-0.036 0.0937,-0.0689 0.0839,-0.0986 -0.007,-0.0197 -0.0331,-0.0402 -0.0884,-0.0681 -0.31743,-0.16027 -0.555,-0.3568 -0.72911,-0.60314 -0.1064,-0.15054 -0.18848,-0.33361 -0.2049,-0.45699 -0.0104,-0.0784 0.0104,-0.1153 0.1021,-0.18033 0.0351,-0.025 0.12173,-0.083 0.18964,-0.12727 0.0222,-0.0145 0.0639,-0.0416 0.0925,-0.0602 0.0922,-0.0601 0.13924,-0.10081 0.1689,-0.14623 0.0195,-0.0298 0.0267,-0.0503 0.0291,-0.0821 0.004,-0.0491 -0.0145,-0.0986 -0.0478,-0.12973 -0.0341,-0.0318 -0.0682,-0.0429 -0.1303,-0.0422 -0.0605,6.6e-4 -0.1098,0.0139 -0.25741,0.0691 -0.0641,0.024 -0.12403,0.0454 -0.13309,0.0475 -0.0454,0.0109 -0.0737,-6.6e-4 -0.0785,-0.0325 -10e-4,-0.008 2.5e-4,-0.0524 0.003,-0.0987 0.0185,-0.28565 0.0154,-0.53672 -0.009,-0.7059 -0.0349,-0.24533 -0.11078,-0.41352 -0.26854,-0.59527 -0.12642,-0.14565 -0.31077,-0.26663 -0.511,-0.33534 -0.31811,-0.10915 -0.70586,-0.0974 -1.00779,0.0305 -0.18929,0.0802 -0.34163,0.19318 -0.46535,0.34515 -0.16379,0.20119 -0.23243,0.40208 -0.25143,0.73583 -0.005,0.0782 -0.002,0.36555 0.004,0.45655 0.002,0.028 0.005,0.0778 0.006,0.11067 0.002,0.0527 0.002,0.0611 -0.003,0.0714 -0.0112,0.0217 -0.0376,0.0265 -0.0811,0.015 -0.023,-0.006 -0.046,-0.0144 -0.15063,-0.0545 -0.13852,-0.0531 -0.22168,-0.0698 -0.2816,-0.0565 -0.0836,0.0186 -0.12775,0.0732 -0.12788,0.15844 -7e-5,0.0471 0.017,0.0857 0.0573,0.12984 0.0344,0.0376 0.0815,0.0723 0.21491,0.15775 0.06,0.0384 0.19785,0.13109 0.22296,0.14983 0.0396,0.0295 0.0656,0.0567 0.0768,0.0803 0.009,0.0178 0.009,0.0227 0.009,0.0632 -2.5e-4,0.0488 -0.005,0.0743 -0.029,0.14399 -0.027,0.0799 -0.0738,0.17918 -0.12096,0.25618 -0.16823,0.27506 -0.42856,0.50504 -0.76639,0.67704 -0.0898,0.0457 -0.10711,0.0599 -0.10711,0.0883 0,0.0149 0.002,0.0199 0.0137,0.0347 0.0163,0.0207 0.048,0.0422 0.10196,0.0692 0.0789,0.0395 0.1537,0.0666 0.2715,0.0983 0.15822,0.0425 0.20827,0.0695 0.23441,0.12663 0.01,0.0209 0.0127,0.0345 0.0229,0.10077 0.01,0.0623 0.0239,0.087 0.0597,0.10336 0.0285,0.0131 0.0741,0.0188 0.19141,0.0242 0.18773,0.009 0.27537,0.0193 0.38532,0.0471 0.13154,0.0333 0.20749,0.0672 0.3522,0.15753 0.12564,0.0784 0.21385,0.12453 0.29996,0.15684 0.12189,0.0458 0.22985,0.0657 0.38663,0.0715 0.01,2.4e-4 0.0475,-6.6e-4 0.084,-0.003 z"
         id="path456-9" /></g></g></svg>
