<?xml version="1.0" encoding="UTF-8" standalone="no"?>
<!-- Created with Inkscape (http://www.inkscape.org/) -->

<svg
   width="10.583333mm"
   height="10.583333mm"
   viewBox="0 0 10.583333 10.583333"
   version="1.1"
   id="svg5"
   xml:space="preserve"
   inkscape:version="1.2 (dc2aeda, 2022-05-15)"
   sodipodi:docname="tiktok.svg"
   xmlns:inkscape="http://www.inkscape.org/namespaces/inkscape"
   xmlns:sodipodi="http://sodipodi.sourceforge.net/DTD/sodipodi-0.dtd"
   xmlns="http://www.w3.org/2000/svg"
   xmlns:svg="http://www.w3.org/2000/svg"><sodipodi:namedview
     id="namedview7"
     pagecolor="#ffffff"
     bordercolor="#000000"
     borderopacity="0.25"
     inkscape:showpageshadow="2"
     inkscape:pageopacity="0.0"
     inkscape:pagecheckerboard="0"
     inkscape:deskcolor="#d1d1d1"
     inkscape:document-units="mm"
     showgrid="false"
     inkscape:zoom="3.6170906"
     inkscape:cx="-11.611542"
     inkscape:cy="19.629035"
     inkscape:window-width="1439"
     inkscape:window-height="796"
     inkscape:window-x="0"
     inkscape:window-y="25"
     inkscape:window-maximized="0"
     inkscape:current-layer="layer1" /><defs
     id="defs2"><clipPath
       clipPathUnits="userSpaceOnUse"
       id="clipPath545"><rect
         style="fill:#000000;stroke:#000000;stroke-width:0.308999;stroke-linecap:round"
         id="rect547"
         width="44.021317"
         height="44.021309"
         x="-445.59119"
         y="401.9003"
         ry="0.16499072" /></clipPath></defs><g
     inkscape:label="Layer 1"
     inkscape:groupmode="layer"
     id="layer1"
     transform="translate(176.44421,-185.99647)"><g
       id="g1317"
       transform="translate(0,-10.583328)"><path
         d="m -167.51452,196.5798 h -7.27604 c -0.91329,0 -1.65365,0.74036 -1.65365,1.65365 v 7.27604 c 0,0.91329 0.74036,1.65364 1.65365,1.65364 h 7.27604 c 0.91329,0 1.65364,-0.74035 1.65364,-1.65364 v -7.27604 c 0,-0.91329 -0.74035,-1.65365 -1.65364,-1.65365 z"
         fill="#25d366"
         id="path549"
         style="fill:#000000;fill-opacity:1;stroke-width:0.264583" /><g
         id="g617"
         transform="matrix(0.41383725,0,0,0.41383725,-86.799277,125.33717)"><path
           d="m -201.13311,183.17258 c 0.81669,0.58586 1.81719,0.93059 2.89774,0.93059 v -2.08674 c -0.20449,2e-5 -0.40846,-0.0214 -0.60854,-0.0639 v 1.64256 c -1.08048,0 -2.08084,-0.34473 -2.89774,-0.93057 v 4.25847 c 0,2.13029 -1.7208,3.85712 -3.84339,3.85712 -0.792,0 -1.52813,-0.24029 -2.13962,-0.65241 0.69793,0.71618 1.67123,1.16044 2.74803,1.16044 2.12272,0 3.84363,-1.72683 3.84363,-3.8572 v -4.25836 z m 0.75073,-2.10529 c -0.41738,-0.45761 -0.69141,-1.04898 -0.75073,-1.70276 v -0.2684 h -0.57666 c 0.14515,0.83096 0.64027,1.54088 1.32739,1.97116 z m -5.99974,7.42569 c -0.23318,-0.30684 -0.3592,-0.68221 -0.35865,-1.06815 0,-0.97431 0.78711,-1.7643 1.75816,-1.7643 0.18097,-5e-5 0.36084,0.0278 0.53332,0.0827 v -2.13338 c -0.20156,-0.0277 -0.40497,-0.0395 -0.6083,-0.0352 v 1.66052 c -0.17259,-0.0549 -0.35256,-0.0828 -0.53356,-0.0826 -0.97108,0 -1.75811,0.78992 -1.75811,1.76435 0,0.689 0.39341,1.28553 0.96714,1.5761 z"
           fill="#ff004f"
           id="path594"
           style="stroke-width:0.264583" /><path
           d="m -201.74168,182.6645 c 0.8169,0.58584 1.81727,0.93054 2.89775,0.93054 v -1.64256 c -0.60312,-0.12894 -1.13705,-0.44525 -1.53848,-0.88519 -0.68717,-0.43032 -1.18223,-1.14024 -1.32741,-1.97116 h -1.51477 v 8.33473 c -0.003,0.97165 -0.78917,1.75842 -1.75815,1.75842 -0.571,0 -1.07826,-0.27316 -1.39954,-0.6963 -0.57367,-0.29057 -0.96708,-0.88713 -0.96708,-1.57605 0,-0.97435 0.78703,-1.76435 1.75807,-1.76435 0.18606,0 0.36539,0.0291 0.53359,0.0826 v -1.66052 c -2.08531,0.0432 -3.7624,1.75318 -3.7624,3.8562 0,1.04981 0.41764,2.00149 1.09546,2.69687 0.6115,0.41206 1.34762,0.65238 2.1396,0.65238 2.12265,0 3.84342,-1.72691 3.84342,-3.85715 v -4.25849 z"
           fill="#000000"
           id="path596"
           style="fill:#ffffff;stroke-width:0.264583" /><path
           d="m -198.84391,181.95248 v -0.44413 c -0.54387,8.2e-4 -1.07706,-0.15203 -1.5385,-0.4411 0.40849,0.4488 0.94637,0.75825 1.5385,0.88523 z m -2.86588,-2.85635 c -0.0138,-0.0794 -0.0245,-0.15935 -0.0319,-0.23959 v -0.2684 h -2.09153 v 8.3348 c -0.003,0.97152 -0.78904,1.75829 -1.75808,1.75829 -0.28451,0 -0.55311,-0.0678 -0.791,-0.1882 0.32126,0.42309 0.82855,0.6962 1.39954,0.6962 0.96888,0 1.75475,-0.78669 1.75813,-1.75834 v -8.33476 z m -3.3478,4.47856 v -0.47281 c -0.17476,-0.024 -0.35097,-0.036 -0.52737,-0.0359 -2.12283,-3e-5 -3.84363,1.72688 -3.84363,3.85699 0,1.33548 0.67631,2.51243 1.70401,3.20474 -0.67783,-0.69533 -1.09546,-1.64706 -1.09546,-2.69682 0,-2.10299 1.67705,-3.81294 3.76245,-3.85617 z"
           fill="#00f2ea"
           id="path598"
           style="stroke-width:0.264583" /></g></g></g></svg>
